PathFileType	4	(X/Y/Z)	Patient4_TMGait_0pt2_02_right_17.trc.trc
DataRate	CameraRate	NumFrames	NumMarkers	Units	OrigDataRate	OrigDataStartFrame	OrigNumFrames
45.901639344262	45.901639344262	4	33	mm	45.901639344262	1	       141
Frame#	Time	R.Midfoot.Superior			Sacral			L.Shoulder			Chest			R.Shoulder			Neck			R.ASIS			L.ASIS			R.Thigh.Superior			R.Thigh.Lateral			R.Thigh.Inferior			R.Patella			L.Thigh.Superior			L.Thigh.Lateral			L.Thigh.Inferior			L.Patella			L.Shank.Superior			L.Shank.Lateral			L.Shank.Inferior			R.Shank.Superior			R.Shank.Lateral			R.Shank.Inferior			R.Heel			R.Midfoot.Lateral			R.Toe			L.Heel			L.Midfoot.Lateral			L.Midfoot.Superior			L.Toe			L.Elbow			L.Wrist			R.Elbow			R.Wrist			
		X1	Y1	Z1	X2	Y2	Z2	X3	Y3	Z3	X4	Y4	Z4	X5	Y5	Z5	X6	Y6	Z6	X7	Y7	Z7	X8	Y8	Z8	X9	Y9	Z9	X10	Y10	Z10	X11	Y11	Z11	X12	Y12	Z12	X13	Y13	Z13	X14	Y14	Z14	X15	Y15	Z15	X16	Y16	Z16	X17	Y17	Z17	X18	Y18	Z18	X19	Y19	Z19	X20	Y20	Z20	X21	Y21	Z21	X22	Y22	Z22	X23	Y23	Z23	X24	Y24	Z24	X25	Y25	Z25	X26	Y26	Z26	X27	Y27	Z27	X28	Y28	Z28	X29	Y29	Z29	X30	Y30	Z30	X31	Y31	Z31	X32	Y32	Z32	X33	Y33	Z33	

1	37.790000000000	930.649438012899	126.508849133689	622.236333361530	891.095658685444	984.206702627294	408.254132880964	1076.963510169880	1412.912170331377	228.612874704280	1174.091106167527	1341.586206082185	391.962074172879	1088.961424365915	1413.793361001447	564.046569550059	1051.083616273461	1475.051390367612	387.257065200822	1118.676285714330	922.939267397099	530.614773870402	1110.032293628598	937.766371867492	255.731819135822	1172.755075058936	725.472244491020	514.350484045890	1101.278018343166	618.464790038135	592.544389322003	1182.841874322543	556.973464237063	520.420589192600	1179.746656390877	449.684957922028	549.052631659754	1179.634113024672	742.659271017673	302.410330450711	1115.051806957225	608.804430218795	247.812452590867	1208.725355213280	548.236955022271	320.557396707424	1217.987806709450	471.181374221064	330.723626491101	1175.077509583159	395.594691842854	327.348152877932	1067.697370957122	296.440419227409	279.082026289187	1093.189549377208	181.628237518575	353.672827298607	1102.064531578397	383.479443263223	564.657351003225	986.205816539141	351.332490818540	639.385326827496	963.757786754533	239.831333105729	596.922436495418	756.076316910669	174.201054493329	593.474821279683	824.862281912050	122.025635726566	664.270304374334	1004.823273161194	31.733207002388	646.143416977395	941.752094066388	40.321289664856	396.383745682700	1014.175233001926	37.160827874282	315.014577298499	1099.577228631882	96.063809310038	341.760155855849	1225.981037774832	40.501188261415	308.100174313518	1131.001967951902	1069.124070567134	94.883326465832	1256.290604523841	838.137993603258	108.759040458829	1138.694064560260	1056.309508457351	665.687201683472	1309.958109529348	857.425308238168	671.672793711448	
2	37.811785714286	938.528010091603	132.304649818207	618.882134926094	888.366044630176	982.998168925941	403.794736238409	1076.757838458566	1412.984737658221	226.695136065761	1170.724860458912	1341.613916910588	391.725741317087	1081.865535159916	1412.910388427162	562.335350289477	1047.750070980640	1474.590366894919	385.004576009175	1115.565459623071	923.552734397724	528.435120701437	1109.280037273677	937.424499698448	253.352849790399	1175.904863578466	730.388847771564	510.951319561807	1109.883527499631	621.524419442124	589.630823127961	1193.000102205257	562.796154899519	516.940226779945	1193.104172809638	454.439806628372	546.233434715482	1178.418333723181	741.601232930709	300.586661561842	1113.636194045141	607.764346239362	246.479964220282	1206.601504230618	547.273035976550	320.040094342760	1215.645369648137	470.309077550155	330.692627535353	1172.351040719097	394.713763415949	327.134659796861	1064.691053295451	295.885831194733	278.658414581703	1089.360752921092	181.145415190473	353.652029093139	1114.551153534284	387.468322010089	561.825596822174	997.305250882523	357.318010406945	635.583536973170	973.615571131712	245.785831972296	593.694032882720	765.182504535309	184.856531315464	588.960771777837	832.134209637374	130.805620788699	660.239737515887	1009.376116041965	32.466989981431	643.503418081918	937.335577498671	40.243693648726	396.301102082579	1009.802437777385	37.107614361332	314.915245722511	1095.208638784205	95.981701350024	341.756794406478	1221.620962795525	40.477757519291	308.081930290786	1143.454404816687	1073.659551501144	91.204270199321	1282.355906382302	852.315934110055	106.204928725798	1112.041699740905	1055.134613282864	664.700650717918	1262.489606208503	844.280911780919	672.035293346743	
3	37.833571428571	948.061993866429	137.545679422285	615.664191433359	885.587340419328	982.104115045415	399.236910962522	1076.635410126982	1413.392504458788	224.851597634919	1167.261234131820	1341.968910792502	391.622141600495	1074.488327466589	1412.363962496013	560.603078205274	1044.339247393322	1474.434946965694	382.767987640533	1112.260648695882	924.488846690938	526.314969936992	1108.549119228581	937.399822445442	251.047234673524	1178.797715731942	735.678738951732	507.642272315168	1118.146505955848	624.984045495439	586.822847051567	1202.821853442552	569.027481232783	513.594607736440	1206.239020524838	459.777263354583	543.528028524687	1176.966238964855	740.657385680955	298.813242844263	1111.812480392162	606.918974599061	245.145299446363	1203.960685074206	546.395907971327	319.519646104055	1212.704114880523	469.584242414496	330.665306281296	1169.087754686512	393.999457485108	326.897442914973	1061.259369644483	295.393495145491	278.208515429324	1085.236949009896	180.746077875485	353.613912841133	1127.160644286362	391.794255893964	559.107988353347	1008.760934141492	362.956899202349	631.981966751648	984.434833465758	251.276508305660	590.623577941656	775.559101038201	193.620099563516	584.768255336838	841.138193103286	138.165949301995	656.429368973183	1016.436903542878	33.398244918801	640.830753879101	932.739644640342	40.161154736057	396.216760939721	1005.254309954007	37.049502651286	314.812941419479	1090.660549099871	95.910227232612	341.736560102198	1217.087267799163	40.464238605916	308.069080157165	1156.207392731129	1078.888556826748	87.453944301404	1309.073516018217	867.979201589769	103.678062860549	1084.369501072667	1054.786761632200	663.632763541723	1213.432644937833	832.348254108383	672.157924325365	
4	37.855357142857	959.704288890942	141.820596627295	612.811922566309	882.843212197620	981.693001347134	394.706150848025	1076.631473035389	1414.255305494401	223.191607272421	1163.783811794697	1342.773689877337	391.716031476797	1066.994690450592	1412.326463578212	558.906107971356	1040.942556833548	1474.715827563502	380.642906985658	1108.798960260156	925.839088538695	524.371052566777	1107.879259079177	937.820885254534	248.950701526764	1181.160329919696	741.242384264467	504.610030215008	1125.546407000821	628.848622328202	584.308205736505	1211.697269583187	575.541563167146	510.591737560654	1218.459657349901	465.703803925439	541.109679558283	1175.209309547837	739.904673393308	297.189077586584	1109.459042322458	606.387678729148	243.848248511723	1200.656537597393	545.674041916345	319.003395795073	1208.989423478800	469.095577981235	330.625977357081	1165.159262400305	393.551016377623	326.620475268866	1057.330154261816	295.005655640494	277.728836008899	1080.832916246947	180.482506115942	353.546433845510	1139.402230904515	396.421576337690	556.692423216091	1020.283922773894	367.858600976660	628.830018161955	996.264898909384	255.903908414438	587.932947753462	787.528043340059	199.341858762031	581.207499686787	852.414835881096	143.245572159321	653.108567680060	1026.889472369269	34.638061139147	638.294545588249	928.053451382751	40.073568114094	396.134265797691	1000.619767771026	36.986703483941	314.709309228729	1086.020165313331	95.855874257161	341.692621672649	1212.468996818416	40.467221852124	308.064138817545	1168.910795992463	1084.918758502090	83.766632366211	1335.670682284782	885.195910589591	101.317115104390	1056.326916441703	1055.658593290183	662.442968218543	1164.047029408046	822.624807663664	671.894039874307	
